<svg width="416" height="312" viewBox="0 0 416 312" fill="none" xmlns="http://www.w3.org/2000/svg">
<path d="M314.624 78.5417C314.617 74.0461 296.665 73.0282 296.665 73.0282C296.665 73.0282 282.113 73.6988 282.12 78.1944C282.127 82.69 279.775 84.1634 296.684 85.3709C308.546 86.218 314.631 83.0373 314.624 78.5417Z" fill="#80BAFF"/>
<path d="M366.972 160.762C364.021 159.32 362.199 161.392 360.757 164.343C359.315 167.294 360.365 168.606 363.316 170.048C366.266 171.49 368.262 171.666 369.704 168.716C371.146 165.765 369.923 162.204 366.972 160.762Z" fill="#BBED58"/>
<path d="M44.4053 194.945C45.7335 197.949 48.0404 197.725 50.523 196.627C53.0057 195.529 53.3285 193.685 52.0002 190.681C50.6719 187.677 48.9781 186.421 46.4955 187.519C44.0128 188.617 43.077 191.942 44.4053 194.945Z" fill="#FFDDBF"/>
<path d="M115.097 54.8902C115.019 58.6989 120.628 60.0132 124.925 59.7879C128.51 59.6 132.982 59.4036 133.06 55.595C133.138 51.7863 129.08 49.8179 125.139 49.3313C117.735 48.4173 115.175 51.0816 115.097 54.8902Z" fill="#80BAFF"/>
<path d="M308 167L312.178 167C313.829 167 315.31 165.986 315.907 164.446L322.888 146.446C323.905 143.825 321.97 141 319.158 141L308 141C305.791 141 304 142.791 304 145L304 163C304 165.209 305.791 167 308 167Z" fill="#071D2B" fill-opacity="0.1"/>
<path d="M198.082 66.2031C199.461 64.6241 202.031 65.9616 201.53 67.9973L195.75 91.4569C195.31 93.244 193.707 94.5 191.866 94.5H182.169C178.734 94.5 176.897 90.4555 179.156 87.8685L198.082 66.2031Z" fill="#FF9780"/>
<path d="M127 186H120.582C118.578 186 116.884 187.482 116.617 189.467L107.609 256.467C107.287 258.866 109.153 261 111.574 261H127C129.209 261 131 259.209 131 257V190C131 187.791 129.209 186 127 186Z" fill="#071D2B" fill-opacity="0.1"/>
<path d="M203.5 235.529C203.5 233.028 205.545 230.958 208.004 231.417C212.387 232.237 216.494 234.244 219.856 237.259C223.218 240.274 225.66 244.138 226.951 248.407C227.675 250.801 225.839 253.059 223.352 253.33C220.866 253.602 218.688 251.758 217.709 249.456C216.831 247.391 215.506 245.526 213.808 244.004C212.111 242.481 210.113 241.367 207.965 240.718C205.57 239.995 203.5 238.031 203.5 235.529Z" fill="#FFDDBF"/>
<path d="M280.502 156.5V172.5C280.502 173.052 280.054 173.5 279.502 173.5H257.502C256.949 173.5 256.502 173.052 256.502 172.5V136.5C256.502 135.948 256.054 135.5 255.502 135.5H245.502C244.949 135.5 244.502 135.052 244.502 134.5V117.5C244.502 116.948 244.054 116.5 243.502 116.5H232.502C231.949 116.5 231.502 116.948 231.502 117.5V127.5C231.502 128.052 231.054 128.5 230.502 128.5H225.502C224.949 128.5 224.502 128.052 224.502 127.5V117.5C224.502 116.948 224.054 116.5 223.502 116.5H212.502C211.949 116.5 211.502 116.948 211.502 117.5V127.5C211.502 128.052 211.054 128.5 210.502 128.5H204.502C203.949 128.5 203.502 128.052 203.502 127.5V117.5C203.502 116.948 203.054 116.5 202.502 116.5H191.502C190.949 116.5 190.502 116.948 190.502 117.5L190.501 127.5C190.501 128.052 190.053 128.5 189.501 128.5L184.502 128.5C183.949 128.5 183.502 128.052 183.502 127.5V117.5C183.502 116.948 183.054 116.5 182.502 116.5H171.502C170.949 116.5 170.502 116.948 170.502 117.5V134.5C170.502 135.052 170.054 135.5 169.502 135.5H160.502C159.95 135.5 159.502 135.948 159.502 136.5V160.5C159.502 161.052 159.95 161.5 160.502 161.5H244.502V147.5H171.459V172.5C171.459 173.052 171.011 173.5 170.459 173.5H144.47C143.918 173.5 143.47 173.948 143.47 174.5V195.5C143.47 196.052 143.918 196.5 144.47 196.5H155.49C156.043 196.5 156.49 196.052 156.49 195.5V183.5C156.49 182.948 156.938 182.5 157.49 182.5H170.47C171.022 182.5 171.47 182.948 171.47 183.5V195.5C171.47 196.052 171.918 196.5 172.47 196.5H184.47C185.022 196.5 185.47 196.052 185.47 195.5V183.5C185.47 182.948 185.918 182.5 186.47 182.5H199.47C200.022 182.5 200.47 182.948 200.47 183.5V195.5C200.47 196.052 200.918 196.5 201.47 196.5H212.472C213.024 196.5 213.471 196.054 213.472 195.502L213.5 183.498C213.501 182.946 213.948 182.5 214.5 182.5H227.502C228.054 182.5 228.502 182.948 228.502 183.5V195.5C228.502 196.052 228.95 196.5 229.502 196.5H241.502C242.054 196.5 242.502 196.052 242.502 195.5V183.5C242.502 182.948 242.95 182.5 243.502 182.5H256.502C257.054 182.5 257.502 182.948 257.502 183.5V195.5C257.502 196.052 257.95 196.5 258.502 196.5H270.502C271.054 196.5 271.502 196.052 271.502 195.5V183.5C271.502 182.948 271.95 182.5 272.502 182.5H284.502C285.054 182.5 285.502 182.948 285.502 183.5L285.5 268.5C285.5 269.052 285.052 269.5 284.5 269.5H187.954H91.4073C90.8547 269.5 90.4069 269.052 90.4073 268.499L90.4999 156.915C90.5001 156.649 90.3947 156.395 90.207 156.207L78.7931 144.793C78.6056 144.605 78.5002 144.351 78.5002 144.086V110.5C78.5002 109.948 78.9479 109.5 79.5002 109.5H92.5002C93.0525 109.5 93.5002 109.948 93.5002 110.5V127.5C93.5002 128.052 93.9479 128.5 94.5002 128.5H105.5C106.053 128.5 106.5 128.052 106.5 127.5V110.5C106.5 109.948 106.948 109.5 107.5 109.5H119.5C120.053 109.5 120.5 109.948 120.5 110.5V127.5C120.5 128.052 120.948 128.5 121.5 128.5H132.5C133.053 128.5 133.5 128.052 133.5 127.5V110.5C133.5 109.948 133.948 109.5 134.5 109.5H146.5C147.053 109.5 147.5 109.948 147.5 110.5V144.5M147.5 144.5C143.204 149.186 136.5 156.5 136.5 156.5M147.5 144.5L136.5 156.5M136.5 156.5V280.5C136.5 281.052 136.081 281.5 135.529 281.5C128.517 281.5 85.1786 281.5 59.502 281.5M280.5 156.5L268.793 144.793C268.605 144.605 268.5 144.351 268.5 144.086V110.5C268.5 109.948 268.948 109.5 269.5 109.5H282.5C283.052 109.5 283.5 109.948 283.5 110.5V127.5C283.5 128.052 283.948 128.5 284.5 128.5H295.5C296.052 128.5 296.5 128.052 296.5 127.5V110.5C296.5 109.948 296.948 109.5 297.5 109.5H309.501C310.053 109.5 310.501 109.948 310.501 110.5V127.5C310.501 128.052 310.948 128.5 311.501 128.5H322.501C323.053 128.5 323.501 128.052 323.501 127.5V110.5C323.501 109.948 323.948 109.5 324.501 109.5H336.501C337.053 109.5 337.501 109.948 337.501 110.5V144.111C337.501 144.361 337.407 144.602 337.238 144.787L326.763 156.213C326.594 156.398 326.501 156.639 326.501 156.889V280.5C326.501 281.052 326.948 281.5 327.501 281.5H350.5M208 269.5V248.75V228" stroke="#071D2B" stroke-width="1.5" stroke-miterlimit="10" stroke-linecap="round" stroke-linejoin="round"/>
<path d="M178.5 116.5L178.488 100.5M237.5 100.5V116.5" stroke="#071D2B" stroke-width="1.5" stroke-miterlimit="10" stroke-linecap="round" stroke-linejoin="round"/>
<path d="M240.504 100.5H174.504L207.504 59.5L240.504 100.5Z" stroke="#071D2B" stroke-width="1.5" stroke-miterlimit="10" stroke-linecap="round" stroke-linejoin="round"/>
<path d="M207.5 59.8965V30.5M207.5 32.5C207.5 32.5 213 33.5 220.5 33.5C228 33.5 233.5 32.5 233.5 32.5L226 40L233.5 46.5C233.5 46.5 227.5 47.5 220.5 47.5C213.5 47.5 207.5 46.5 207.5 46.5" stroke="#071D2B" stroke-width="1.5" stroke-miterlimit="10" stroke-linecap="round" stroke-linejoin="round"/>
<path d="M207.5 111.5C208.605 111.5 209.5 110.605 209.5 109.5C209.5 108.395 208.605 107.5 207.5 107.5C206.395 107.5 205.5 108.395 205.5 109.5C205.5 110.605 206.395 111.5 207.5 111.5Z" stroke="#071D2B" stroke-width="1.5" stroke-miterlimit="10" stroke-linecap="round" stroke-linejoin="round"/>
<path d="M207.5 156.5C208.605 156.5 209.5 155.605 209.5 154.5C209.5 153.395 208.605 152.5 207.5 152.5C206.395 152.5 205.5 153.395 205.5 154.5C205.5 155.605 206.395 156.5 207.5 156.5Z" stroke="#071D2B" stroke-width="1.5" stroke-miterlimit="10" stroke-linecap="round" stroke-linejoin="round"/>
<path d="M197.5 156.5C198.605 156.5 199.5 155.605 199.5 154.5C199.5 153.395 198.605 152.5 197.5 152.5C196.395 152.5 195.5 153.395 195.5 154.5C195.5 155.605 196.395 156.5 197.5 156.5Z" stroke="#071D2B" stroke-width="1.5" stroke-miterlimit="10" stroke-linecap="round" stroke-linejoin="round"/>
<path d="M187.5 156.5C188.605 156.5 189.5 155.605 189.5 154.5C189.5 153.395 188.605 152.5 187.5 152.5C186.395 152.5 185.5 153.395 185.5 154.5C185.5 155.605 186.395 156.5 187.5 156.5Z" stroke="#071D2B" stroke-width="1.5" stroke-miterlimit="10" stroke-linecap="round" stroke-linejoin="round"/>
<path d="M227.5 156.5C228.605 156.5 229.5 155.605 229.5 154.5C229.5 153.395 228.605 152.5 227.5 152.5C226.395 152.5 225.5 153.395 225.5 154.5C225.5 155.605 226.395 156.5 227.5 156.5Z" stroke="#071D2B" stroke-width="1.5" stroke-miterlimit="10" stroke-linecap="round" stroke-linejoin="round"/>
<path d="M217.5 156.5C218.605 156.5 219.5 155.605 219.5 154.5C219.5 153.395 218.605 152.5 217.5 152.5C216.395 152.5 215.5 153.395 215.5 154.5C215.5 155.605 216.395 156.5 217.5 156.5Z" stroke="#071D2B" stroke-width="1.5" stroke-miterlimit="10" stroke-linecap="round" stroke-linejoin="round"/>
<path d="M166.5 236.5V226C166.5 224.619 165.381 223.5 164 223.5C162.619 223.5 161.5 224.619 161.5 226L161.5 236.5H166.5Z" stroke="#071D2B" stroke-width="1.5" stroke-miterlimit="10" stroke-linecap="round" stroke-linejoin="round"/>
<path d="M252.5 236.5V226C252.5 224.619 251.381 223.5 250 223.5C248.619 223.5 247.5 224.619 247.5 226L247.5 236.5H252.5Z" stroke="#071D2B" stroke-width="1.5" stroke-miterlimit="10" stroke-linecap="round" stroke-linejoin="round"/>
<path d="M303.691 197.5H303.398C300.698 197.5 298.5 199.828 298.5 202.711V215.5H308.579V202.711C308.588 199.828 306.4 197.5 303.691 197.5Z" stroke="#071D2B" stroke-width="1.5" stroke-miterlimit="10" stroke-linecap="round" stroke-linejoin="round"/>
<path d="M113.691 197.5H113.397C110.698 197.5 108.5 199.828 108.5 202.711V215.5H118.578V202.711C118.588 199.828 116.4 197.5 113.691 197.5Z" stroke="#071D2B" stroke-width="1.5" stroke-miterlimit="10" stroke-linecap="round" stroke-linejoin="round"/>
<path d="M231.102 269.56V250.86C231.102 244.27 228.692 238.3 224.622 233.99C220.562 229.66 214.852 227 208.262 227C195.082 227 185.422 237.69 185.422 250.87V268.5" stroke="#071D2B" stroke-width="1.5" stroke-miterlimit="10" stroke-linecap="round" stroke-linejoin="round"/>
<path d="M109.5 147.5H119.5M108.219 162.5H121.609M102.5 152.5H121.5M106.5 157.5H119.5M116.5 147.5V152.5M116.5 157.5V162.5M111.498 152.5V157.5" stroke="#071D2B" stroke-width="1.5" stroke-miterlimit="10" stroke-linecap="round" stroke-linejoin="round"/>
<path d="M310.5 255.5H297.5M306.089 240.53H299.699M315.5 250.5H293.5M312.5 245.5H296.5M303.5 255.5V250.5M302.5 245.5V241M309.499 250.5V245.5" stroke="#071D2B" stroke-width="1.5" stroke-miterlimit="10" stroke-linecap="round" stroke-linejoin="round"/>
<path d="M282.893 79.9401C278.023 79.9501 277.773 76.1401 278.113 75.3101C281.183 67.9701 287.583 71.6901 289.333 69.7501C290.233 68.7401 290.513 68.6001 291.573 67.8001C295.653 64.7101 298.503 71.1001 301.633 67.6201C303.153 65.9201 308.313 65.8601 309.583 69.9801C310.713 73.7001 313.653 71.7401 315.923 73.4601C317.773 74.8601 320.043 76.6701 318.203 78.8901C316.723 80.6701 312.703 80.0001 309.803 79.9201C298.733 79.5901 293.933 79.9301 282.893 79.9401Z" stroke="#071D2B" stroke-width="1.5" stroke-miterlimit="10" stroke-linecap="round" stroke-linejoin="round"/>
<path d="M58 78V81.9062M58 86V90M64 84H60.0938M55.9062 84H52" stroke="#071D2B" stroke-width="1.5" stroke-miterlimit="10" stroke-linecap="round" stroke-linejoin="round"/>
<path d="M368.502 164.5C370.159 164.5 371.502 163.157 371.502 161.5C371.502 159.843 370.159 158.5 368.502 158.5C366.845 158.5 365.502 159.843 365.502 161.5C365.502 163.157 366.845 164.5 368.502 164.5Z" stroke="#071D2B" stroke-width="1.5" stroke-miterlimit="10" stroke-linecap="round" stroke-linejoin="round"/>
<path d="M112.5 54.5C108.81 54.5 108.961 52.1086 109.5 50.5C110.758 46.7501 116.451 48.1301 117.921 46.7501C118.468 46.211 119.056 45.7161 119.681 45.2701C122.911 42.9701 124.751 47.8601 127.251 45.1801C128.451 43.8901 132.321 43.8901 133.061 47.0301C133.711 49.8001 137.315 48.6382 138 50.5C138.954 53.0915 135.394 54.5 132.5 54.5C132.5 54.5 119.348 54.5 112.5 54.5Z" stroke="#071D2B" stroke-width="1.5" stroke-linecap="round" stroke-linejoin="round"/>
</svg>
