<svg width="416" height="312" viewBox="0 0 416 312" fill="none" xmlns="http://www.w3.org/2000/svg">
<path d="M249.523 62.5258C249.861 58.0429 268.536 58.403 268.536 58.403C268.536 58.403 283.564 60.1867 283.226 64.6695C282.888 69.1524 285.216 70.8019 267.607 70.7108C255.255 70.6468 249.184 67.0086 249.523 62.5258Z" fill="#80BAFF"/>
<path d="M183.593 274L156.46 274C154.597 274 153.615 271.545 154.899 270.194C159.823 265.013 168.828 254.344 178.5 237C191.138 214.339 197.669 190.562 198.714 186.581C198.815 186.194 199.016 185.853 199.304 185.576C200.59 184.339 202.711 185.13 202.829 186.91C203.413 195.75 204.399 216.385 202.5 235C201.292 246.836 199.501 256.339 197.972 263C196.444 269.653 190.419 274 183.593 274Z" fill="#FF9780"/>
<path d="M316.42 118.762C309.132 122.658 303.371 121.862 303.5 129.5C303.568 133.512 305.472 136.799 309.5 138.5C312.597 139.807 313.462 136.778 317.351 137.03C321.24 137.283 324.708 139.114 327.345 137.532C332.539 134.415 333.226 130.884 333.146 126.16C333.031 119.34 325.841 113.725 316.42 118.762Z" fill="#BBED58"/>
<path d="M150.065 86.4273C149.991 82.9356 160.105 83.1527 160.105 83.1527C160.105 83.1527 166.53 83.5696 166.604 87.0613C166.678 90.5529 165.397 89.3846 160.236 91.4966C153.904 94.0873 150.139 89.919 150.065 86.4273Z" fill="#80BAFF"/>
<path d="M328.512 215.448C325.988 217.55 325.321 218.758 327.695 221.609C330.069 224.46 331.756 224.111 334.28 222.009C336.803 219.907 337.722 218.088 335.348 215.237C332.974 212.385 331.036 213.347 328.512 215.448Z" fill="#FFDDBF"/>
<path d="M124.008 187.942C125.231 189.516 127.256 191.55 130.185 189.273C133.115 186.997 132.039 184.046 130.816 182.472C129.592 180.897 128.255 180.497 125.325 182.774C122.396 185.05 122.784 186.367 124.008 187.942Z" fill="#BBED58"/>
<path d="M96.4985 279.5C96.4985 279.5 195.309 279.5 319.496 279.5" stroke="#071D2B" stroke-width="1.5" stroke-miterlimit="10" stroke-linecap="round" stroke-linejoin="round"/>
<path d="M319.499 279.5C319.499 279.5 342.637 279.5 356.5 269.5C379.273 253.074 374 213.481 346.972 201.127C317.231 187.534 291.999 199.5 253.999 211.5M143.999 237C108.499 246.5 82.1781 238.669 67.7887 228.459C40.8986 209.379 45.9991 174.425 74.2534 163.873C107.771 151.354 141.499 181.5 135.499 188.5C129.499 195.5 120.039 179.701 136.999 163.873" stroke="#071D2B" stroke-width="1.5" stroke-miterlimit="10" stroke-linecap="round" stroke-linejoin="round"/>
<path d="M318.498 150.5C318.498 153.38 319.408 156 322.538 156C325.668 156 326.498 153.38 326.498 150.5H318.498Z" stroke="#071D2B" stroke-width="1.5" stroke-linecap="round" stroke-linejoin="round"/>
<path d="M336.198 119.99C332.338 111.35 322.538 111.43 322.538 111.43C322.538 111.43 312.738 111.35 308.878 119.99C305.018 128.63 310.818 135.99 312.458 137.51C314.098 139.03 318.948 142.79 319.308 144.75C319.478 145.75 319.498 147.5 319.498 147.5H325.498C325.498 147.5 325.588 145.76 325.768 144.75C326.128 142.75 330.988 139.07 332.618 137.51C334.248 135.95 340.068 128.63 336.198 119.99Z" stroke="#071D2B" stroke-width="1.5" stroke-linecap="round" stroke-linejoin="round"/>
<path d="M323.478 146.74C323.848 144.68 325.538 136 327.118 131.86C328.898 127.19 329.788 115.99 322.928 111.45" stroke="#071D2B" stroke-width="1.5" stroke-linecap="round" stroke-linejoin="round"/>
<path d="M322.128 111.45C315.268 115.99 316.128 127.19 317.938 131.86C319.518 136 321.208 144.68 321.578 146.74" stroke="#071D2B" stroke-width="1.5" stroke-linecap="round" stroke-linejoin="round"/>
<path d="M325.498 147.5V150.5" stroke="#071D2B" stroke-width="1.5" stroke-linecap="round" stroke-linejoin="round"/>
<path d="M319.498 147.5V150.5" stroke="#071D2B" stroke-width="1.5" stroke-linecap="round" stroke-linejoin="round"/>
<path d="M92.4599 115.5C90.8899 123.55 79.9924 127.5 72.4624 127.5M72.4601 127.5C77.468 132.392 89.8304 132.869 96.3937 129.039M92.4628 115.5C86.8628 119.81 79.9109 117.08 74.4609 113.5C83.0009 113.48 92.9506 108.44 93.4606 99.5002M75.4609 100.5C88.9109 100.5 98.4609 81.84 98.4609 70.5M75.4625 100.5C79.8025 104.42 89.1225 104.86 93.4625 99.5002" stroke="#071D2B" stroke-width="1.5" stroke-miterlimit="10" stroke-linecap="round" stroke-linejoin="round"/>
<path d="M100.5 240L100.449 129" stroke="#071D2B" stroke-width="1.5" stroke-miterlimit="10" stroke-linecap="round" stroke-linejoin="round"/>
<path d="M104.461 115.5C106.031 123.55 116.929 127.5 124.459 127.5M124.461 127.5C119.453 132.392 107.091 132.869 100.527 129.039M104.458 115.5C110.058 119.81 117.01 117.08 122.46 113.5C113.92 113.48 103.971 108.44 103.461 99.5002M121.46 100.5C108.01 100.5 98.4602 81.84 98.4602 70.5M121.459 100.5C117.119 104.42 107.799 104.86 103.459 99.5002" stroke="#071D2B" stroke-width="1.5" stroke-miterlimit="10" stroke-linecap="round" stroke-linejoin="round"/>
<path d="M96.4727 239L96.4727 129" stroke="#071D2B" stroke-width="1.5" stroke-miterlimit="10" stroke-linecap="round" stroke-linejoin="round"/>
<path d="M90.4766 145.5H96.4766" stroke="#071D2B" stroke-width="1.5" stroke-miterlimit="10" stroke-linecap="round" stroke-linejoin="round"/>
<path d="M100.477 189.5H105.477" stroke="#071D2B" stroke-width="1.5" stroke-miterlimit="10" stroke-linecap="round" stroke-linejoin="round"/>
<path d="M92.4766 209.5H96.4766" stroke="#071D2B" stroke-width="1.5" stroke-miterlimit="10" stroke-linecap="round" stroke-linejoin="round"/>
<path d="M307.999 279C266.56 235.755 229.49 183.418 207.999 127M207.999 127C208.086 178.825 222.907 232.264 245.22 279M207.999 127C214.412 177.632 242.83 242.206 280.198 279" stroke="#071D2B" stroke-width="1.5" stroke-miterlimit="10" stroke-linecap="round" stroke-linejoin="round"/>
<path d="M107.999 279C149.216 235.883 185.624 183.251 206.999 127M206.999 127C206.913 178.672 192.624 232.402 170.432 279M206.999 127C200.621 177.482 172.815 242.315 135.648 279" stroke="#071D2B" stroke-width="1.5" stroke-miterlimit="10" stroke-linecap="round" stroke-linejoin="round"/>
<path d="M207.499 132.896V101.5" stroke="#071D2B" stroke-width="1.5" stroke-miterlimit="10" stroke-linecap="round" stroke-linejoin="round"/>
<path d="M313.71 268.443L309.499 279.5M314.635 266.049C316.447 266.752 317.715 267.858 317.468 268.521C317.22 269.183 315.55 269.15 313.737 268.448C311.925 267.745 310.657 266.639 310.904 265.976C311.152 265.314 312.822 265.346 314.635 266.049Z" stroke="#071D2B" stroke-width="1.5" stroke-miterlimit="10" stroke-linecap="round" stroke-linejoin="round"/>
<path d="M103.287 268.443L107.499 279.5M102.362 266.049C100.55 266.752 99.2816 267.858 99.5295 268.521C99.7773 269.183 101.447 269.15 103.26 268.448C105.072 267.745 106.341 266.639 106.093 265.976C105.845 265.314 104.175 265.346 102.362 266.049Z" stroke="#071D2B" stroke-width="1.5" stroke-miterlimit="10" stroke-linecap="round" stroke-linejoin="round"/>
<path d="M207.499 101.5C207.499 101.5 212.999 102.5 220.499 102.5C227.999 102.5 233.499 101.5 233.499 101.5L225.999 109L233.499 115.5C233.499 115.5 227.499 116.5 220.499 116.5C213.499 116.5 207.499 115.5 207.499 115.5" stroke="#071D2B" stroke-width="1.5" stroke-miterlimit="10" stroke-linecap="round" stroke-linejoin="round"/>
<path d="M245.251 64.9906C245.251 64.9906 236.47 65.2102 239.719 58.5037C243.177 51.3681 251.198 55.6506 253.549 53.3153C254.794 52.0179 254.932 50.7205 257.698 49.4232C262.553 47.1462 267.241 55.0017 271.528 50.7203C273.602 48.6445 279.826 48.2546 281.209 53.3143C282.453 57.9849 286.257 55.5904 289.507 57.2063C291.123 58.0103 293.379 60.32 290.889 63.0445C288.815 65.2501 281.209 64.9906 281.209 64.9906L245.251 64.9906Z" stroke="#071D2B" stroke-width="1.5" stroke-miterlimit="10" stroke-linecap="round" stroke-linejoin="round"/>
<path d="M276.5 157.5V161.406M276.5 165.5V169.5M282.5 163.5H278.594M274.406 163.5H270.5" stroke="#071D2B" stroke-width="1.5" stroke-miterlimit="10" stroke-linecap="round" stroke-linejoin="round"/>
<path d="M335.5 219.5C337.157 219.5 338.5 218.157 338.5 216.5C338.5 214.843 337.157 213.5 335.5 213.5C333.843 213.5 332.5 214.843 332.5 216.5C332.5 218.157 333.843 219.5 335.5 219.5Z" stroke="#071D2B" stroke-width="1.5" stroke-miterlimit="10" stroke-linecap="round" stroke-linejoin="round"/>
<path d="M149.497 87.5C145.807 87.5 145.957 85.1086 146.497 83.5C147.754 79.7501 153.448 81.1301 154.918 79.7501C155.464 79.211 156.053 78.7161 156.678 78.2701C159.908 75.9701 161.748 80.8601 164.248 78.1801C165.448 76.8901 169.318 76.8901 170.058 80.0301C170.708 82.8001 174.312 81.6382 174.997 83.5C175.95 86.0915 172.39 87.5 169.497 87.5C169.497 87.5 156.345 87.5 149.497 87.5Z" stroke="#071D2B" stroke-width="1.5" stroke-linecap="round" stroke-linejoin="round"/>
</svg>
