<svg width="416" height="312" viewBox="0 0 416 312" fill="none" xmlns="http://www.w3.org/2000/svg">
<path d="M298.624 61.5417C298.617 57.0461 280.665 56.0282 280.665 56.0282C280.665 56.0282 266.113 56.6988 266.12 61.1944C266.127 65.69 263.775 67.1634 280.684 68.3709C292.546 69.218 298.631 66.0373 298.624 61.5417Z" fill="#80BAFF"/>
<path d="M336.643 109.476C336.554 113.807 343.473 115.313 348.772 115.065C353.191 114.859 358.706 114.644 358.795 110.313C358.883 105.982 353.875 103.735 349.015 103.174C339.884 102.12 336.732 105.145 336.643 109.476Z" fill="#80BAFF"/>
<path d="M249.347 254.978C251.01 260.124 247 272 233.993 274.97C223.061 278.321 215.552 265.01 225.195 259.731C229.441 257.406 234.773 258.062 237.642 253.402C240.511 248.742 247.684 249.833 249.347 254.978Z" fill="#FF9780"/>
<path d="M341.736 235.797C340.005 243.326 345.523 241.42 353.304 247.154C361.085 252.888 362.846 262.145 369.159 258.435C376.653 254.03 371.874 240.655 364.093 234.921C356.311 229.187 344.226 224.967 341.736 235.797Z" fill="#BBED58"/>
<path d="M146.53 80.6079C146.351 84.0958 136.28 83.1479 136.28 83.1479C136.28 83.1479 129.902 82.2674 130.08 78.7795C130.259 75.2916 131.453 76.5495 136.753 74.8163C143.255 72.6903 146.709 77.12 146.53 80.6079Z" fill="#80BAFF"/>
<path d="M50.0076 177.942C51.2313 179.516 53.2556 181.55 56.1853 179.273C59.115 176.997 58.0393 174.046 56.8156 172.472C55.5919 170.897 54.255 170.497 51.3254 172.774C48.3957 175.05 48.7839 176.367 50.0076 177.942Z" fill="#FFDDBF"/>
<path d="M105.643 120.636L104.844 125.328C104.386 128.017 106.289 130.537 109.001 130.833L201.952 140.974C204.87 141.292 207.499 139.201 207.846 136.287C208.188 133.41 206.179 130.784 203.313 130.361L111.005 116.745C108.457 116.369 106.076 118.097 105.643 120.636Z" fill="#071D2B" fill-opacity="0.1"/>
<path d="M263.5 63.5C263.5 63.5 254.472 63.2103 257.721 56.5038C261.179 49.3682 269.2 53.6506 271.551 51.3154C272.796 50.018 272.934 48.7206 275.7 47.4233C280.555 45.1462 285.243 53.0017 289.53 48.7204C291.604 46.6446 297.828 46.2546 299.211 51.3144C300.455 55.9849 304.259 53.5904 307.509 55.2064C309.125 56.0104 311.381 58.3201 308.891 61.0446C306.402 63.7691 299.5 63.5 299.5 63.5L263.5 63.5Z" stroke="#071D2B" stroke-width="1.5" stroke-miterlimit="10" stroke-linecap="round" stroke-linejoin="round"/>
<path d="M127.498 78.5003C123.808 78.5003 123.959 76.109 124.498 74.5003C125.756 70.7504 130.03 72.8802 131.5 71.5002C132.047 70.9612 133.284 69.8643 134.679 69.2704C137.491 68.0737 140 72.1802 142.5 69.5002C143.7 68.2102 147.319 67.8904 148.059 71.0304C148.709 73.8004 152.313 72.6385 152.998 74.5003C153.952 77.0918 150.392 78.5003 147.498 78.5003C147.498 78.5003 134.346 78.5003 127.498 78.5003Z" stroke="#071D2B" stroke-width="1.5" stroke-linecap="round" stroke-linejoin="round"/>
<path d="M227.5 83.5V87.4062M227.5 91.5V95.5M233.5 89.5H229.594M225.406 89.5H221.5" stroke="#071D2B" stroke-width="1.5" stroke-miterlimit="10" stroke-linecap="round" stroke-linejoin="round"/>
<path d="M54.5 174.5C56.1569 174.5 57.5 173.157 57.5 171.5C57.5 169.843 56.1569 168.5 54.5 168.5C52.8431 168.5 51.5 169.843 51.5 171.5C51.5 173.157 52.8431 174.5 54.5 174.5Z" stroke="#071D2B" stroke-width="1.5" stroke-miterlimit="10" stroke-linecap="round" stroke-linejoin="round"/>
<path d="M331.591 109.5C326.721 109.51 326.771 105.14 327.111 104.31C330.181 96.9701 336.581 100.69 338.331 98.7501C339.231 97.7401 339.511 97.6001 340.571 96.8001C344.651 93.7101 347.501 100.1 350.631 96.6201C352.151 94.9201 357.311 94.8601 358.581 98.9801C359.711 102.7 362.651 100.74 364.921 102.46C366.771 103.86 369.041 105.67 367.201 107.89C365.721 109.67 361.401 109.58 358.501 109.5C349.001 109.5 342.631 109.49 331.591 109.5Z" stroke="#071D2B" stroke-width="1.5" stroke-miterlimit="10" stroke-linecap="round" stroke-linejoin="round"/>
<path d="M139.562 247.905L92.9167 241.969C90.4321 241.652 88.6512 239.415 88.9004 236.923V236.923C89.1627 234.3 91.5616 232.427 94.1698 232.809L108.432 234.896" stroke="#071D2B" stroke-width="1.5" stroke-miterlimit="10" stroke-linecap="round" stroke-linejoin="round"/>
<path d="M224.107 258.211V258.22C224.079 258.49 224.07 258.759 224.07 259.038C224.07 263.508 227.694 267.132 232.164 267.132C236.28 267.132 239.672 264.065 240.192 260.097" stroke="#071D2B" stroke-width="1.5" stroke-miterlimit="10" stroke-linecap="round" stroke-linejoin="round"/>
<path d="M178.59 252.552L189.741 168.918L150.712 164.272L139.561 247.905" stroke="#071D2B" stroke-width="1.5" stroke-miterlimit="10" stroke-linecap="round" stroke-linejoin="round"/>
<path d="M139.561 247.905L167.746 256.111L178.842 172.031L150.712 164.272" stroke="#071D2B" stroke-width="1.5" stroke-miterlimit="10" stroke-linecap="round" stroke-linejoin="round"/>
<path d="M164.652 219.099C166.192 219.099 167.44 217.85 167.44 216.311C167.44 214.771 166.192 213.523 164.652 213.523C163.112 213.523 161.864 214.771 161.864 216.311C161.864 217.85 163.112 219.099 164.652 219.099Z" stroke="#071D2B" stroke-width="1.5" stroke-miterlimit="10" stroke-linecap="round" stroke-linejoin="round"/>
<path d="M252.934 225.603L206.471 220.028L212.976 171.706L259.439 177.282L252.934 225.603Z" stroke="#071D2B" stroke-width="1.5" stroke-miterlimit="10" stroke-linecap="round" stroke-linejoin="round"/>
<path d="M255.72 201.443L209.722 195.923" stroke="#071D2B" stroke-width="1.5" stroke-miterlimit="10" stroke-linecap="round" stroke-linejoin="round"/>
<path d="M229.704 222.815L236.209 174.494" stroke="#071D2B" stroke-width="1.5" stroke-miterlimit="10" stroke-linecap="round" stroke-linejoin="round"/>
<path d="M210.187 195.402C221.308 195.385 230.155 184.363 232.764 174.294M210.187 195.402C219.26 197.995 223.196 214.452 222.267 221.886M210.187 195.402C213.353 201.088 214.876 207.676 214.833 214.452" stroke="#071D2B" stroke-width="1.5" stroke-miterlimit="10" stroke-linecap="round" stroke-linejoin="round"/>
<path d="M255.965 201.13C245.216 198.275 239.475 185.36 239.522 174.959M255.965 201.13C246.53 201.321 238.524 216.228 237.525 223.653M255.965 201.13C251.452 205.819 248.298 211.8 246.61 218.363" stroke="#071D2B" stroke-width="1.5" stroke-miterlimit="10" stroke-linecap="round" stroke-linejoin="round"/>
<path d="M77.5 279.5V267.5M77.5 279.5H55.5V267.5H77.5M77.5 279.5H99.5M77.5 267.5H99.5M99.5 279.5V267.5M99.5 279.5H121.5V267.5H99.5M88.5 267.5V255.5M88.5 267.5H66.5V255.5H88.5M88.5 267.5H110.5V261.5V255.5H88.5M99.5 255.5V243.5H77.5V255.5H99.5Z" stroke="#071D2B" stroke-width="1.5" stroke-miterlimit="10" stroke-linecap="round" stroke-linejoin="round"/>
<path d="M94.027 239.077C94.7968 239.077 95.4208 238.453 95.4208 237.683C95.4208 236.914 94.7968 236.29 94.027 236.29C93.2571 236.29 92.6331 236.914 92.6331 237.683C92.6331 238.453 93.2571 239.077 94.027 239.077Z" stroke="#071D2B" stroke-width="1.5" stroke-miterlimit="10" stroke-linecap="round" stroke-linejoin="round"/>
<path d="M232.487 279.5C237.412 279.5 242.031 277.93 245.627 274.603C248.118 272.298 249.614 269.761 250.683 266.927C251.733 264.149 249.883 261.119 246.928 260.776C237.645 259.688 218.958 257.505 212.295 256.724C212.292 256.724 212.289 256.723 212.286 256.723M232.487 279.5C221.884 279.5 213.066 271.23 212.258 260.274L212.193 258.61C212.193 257.978 212.221 257.347 212.286 256.724L212.286 256.723M232.487 279.5H162.774C140.026 279.5 120.168 265.282 111.703 244.932C108.85 238.092 107.354 230.668 107.586 223.02L116.117 152.861C116.358 150.919 114.983 149.144 113.05 148.865L76.7439 143.791C74.3743 143.466 72.7574 141.208 73.1941 138.857L78.1378 111.453C78.5466 109.26 80.6096 107.754 82.8305 108.061L298.474 137.955C300.444 138.216 301.764 140.093 301.355 142.026L299.729 149.785L89.0101 119.445C88.3968 119.361 87.8206 119.779 87.7184 120.392L85.6369 132.77C85.5347 133.402 85.9714 134.006 86.6033 134.09L293.614 163.417C295.389 163.677 297.062 162.506 297.434 160.75L299.72 149.794L312.831 151.681C318.946 152.563 323.155 158.269 322.189 164.356L307.423 257.82C306.568 263.192 301.727 267.002 296.3 266.556L257.987 262.067C256.091 261.844 254.725 260.227 254.697 258.332C254.688 257.57 254.641 256.798 254.548 256.018C253.415 246.326 245.572 238.548 235.87 237.488C223.707 236.15 213.299 245.089 212.286 256.723M232.487 279.5C232.487 279.5 313.333 279.5 337.029 279.5C356.079 279.5 368.558 269.515 368.558 257.198C368.558 230.587 337.321 230.965 327.308 247.928C325.867 250.369 326.457 253.761 329.15 254.646C330.017 254.931 330.967 255.018 331.918 254.696C341.891 251.321 333.502 229 333.502 229M212.286 256.723C197.656 254.95 183.007 253.321 168.368 251.622" stroke="#071D2B" stroke-width="1.5" stroke-miterlimit="10" stroke-linecap="round" stroke-linejoin="round"/>
</svg>
